# Blender 4.3.2
# www.blender.org
mtllib diamondFlat.mtl
o Diamond
v 0.540238 0.765099 0.271421
v 0.711947 0.563699 0.367703
v 0.877556 0.369498 0.248640
v 0.940053 0.296257 -0.016021
v 0.862829 0.386879 -0.271247
v 0.691120 0.588279 -0.367528
v 0.525511 0.782480 -0.248466
v 0.463014 0.855721 0.016195
v 0.168357 0.888723 0.242031
v 0.390299 0.628358 0.584044
v 0.704172 0.260249 0.583968
v 0.926113 0.000027 0.241845
v 0.926114 0.000128 -0.241911
v 0.704172 0.260492 -0.583925
v 0.390299 0.628602 -0.583848
v 0.168358 0.888823 -0.241726
v 0.026069 0.000047 -0.000033
v 0.701594 0.576040 0.000087
vn 0.7514 0.3841 -0.5365
vn 0.9728 0.1243 0.1953
vn 0.4979 0.6811 0.5368
vn 0.2889 0.9264 0.2415
vn 0.4681 0.7164 -0.5174
vn 0.9605 0.1389 -0.2413
vn 0.7813 0.3489 0.5176
vn 0.2765 0.9410 -0.1951
vn -0.9874 0.1581 -0.0000
vn -0.4937 -0.4208 -0.7610
vn -0.0000 -1.0000 -0.0002
vn -0.4937 -0.4211 0.7609
vn -0.8428 -0.0114 -0.5381
vn -0.1446 -0.8303 -0.5383
vn -0.1446 -0.8305 0.5379
vn -0.8428 -0.0116 0.5381
vn 0.7610 0.6487 -0.0000
vn 0.7609 0.6488 -0.0001
vn 0.7609 0.6488 0.0001
vn 0.7610 0.6487 0.0003
vn 0.7611 0.6487 0.0001
vn 0.7608 0.6489 0.0003
vn 0.7609 0.6488 0.0003
vn 0.7608 0.6490 0.0001
vn 0.7608 0.6489 -0.0000
vn 0.8689 0.1055 -0.4836
vn 0.8689 0.1053 0.4836
vn 0.2414 0.8412 0.4838
vn 0.1115 0.9938 0.0002
vn 0.5552 0.4735 -0.6838
vn 0.9989 -0.0470 -0.0000
vn 0.5552 0.4732 0.6840
vn 0.2414 0.8415 -0.4834
vt 0.000000 0.000000
s 1
f 5/1/1 14/1/1 6/1/1
f 3/1/2 12/1/2 4/1/2
f 1/1/3 10/1/3 2/1/3
f 8/1/4 9/1/4 1/1/4
f 6/1/5 15/1/5 7/1/5
f 4/1/6 13/1/6 5/1/6
f 2/1/7 11/1/7 3/1/7
f 7/1/8 16/1/8 8/1/8
f 9/1/9 16/1/9 17/1/9
f 15/1/10 14/1/10 17/1/10
f 13/1/11 12/1/11 17/1/11
f 11/1/12 10/1/12 17/1/12
f 16/1/13 15/1/13 17/1/13
f 14/1/14 13/1/14 17/1/14
f 12/1/15 11/1/15 17/1/15
f 10/1/16 9/1/16 17/1/16
f 5/1/17 6/1/18 18/1/19
f 3/1/20 4/1/21 18/1/19
f 1/1/22 2/1/23 18/1/19
f 8/1/24 1/1/22 18/1/19
f 6/1/18 7/1/25 18/1/19
f 4/1/21 5/1/17 18/1/19
f 2/1/23 3/1/20 18/1/19
f 7/1/25 8/1/24 18/1/19
f 5/1/26 13/1/26 14/1/26
f 3/1/27 11/1/27 12/1/27
f 1/1/28 9/1/28 10/1/28
f 8/1/29 16/1/29 9/1/29
f 6/1/30 14/1/30 15/1/30
f 4/1/31 12/1/31 13/1/31
f 2/1/32 10/1/32 11/1/32
f 7/1/33 15/1/33 16/1/33
