# Blender 4.2.1 LTS
# www.blender.org
mtllib intersect_cube.mtl
o Cube
v -1.000000 -1.000000 -1.000000
v -0.657509 0.014077 -0.657509
v -1.000000 1.000000 -1.000000
v 1.000000 -1.000000 -1.000000
v 0.657509 0.014077 -0.657509
v 1.000000 1.000000 -1.000000
v -1.000000 -1.000000 1.000000
v -0.657509 0.014077 0.657509
v -1.000000 1.000000 1.000000
v 1.000000 -1.000000 1.000000
v 0.657509 0.014077 0.657509
v 1.000000 1.000000 1.000000
v -0.657509 1.000000 -0.657509
v 0.657509 1.000000 0.657509
v 0.657509 1.000000 -0.657509
v -0.657509 1.000000 0.657509
vn -0.0000 -0.0000 -1.0000
vn 1.0000 -0.0000 -0.0000
vn -0.0000 -0.0000 1.0000
vn -1.0000 -0.0000 -0.0000
vn -0.0000 -1.0000 -0.0000
vn -0.0000 1.0000 -0.0000
vt 0.625000 0.000000
vt 0.375000 0.250000
vt 0.375000 0.000000
vt 0.625000 0.250000
vt 0.375000 0.500000
vt 0.625000 0.500000
vt 0.375000 0.750000
vt 0.625000 0.750000
vt 0.375000 1.000000
vt 0.125000 0.750000
vt 0.125000 0.500000
vt 0.875000 0.750000
vt 0.667811 0.707189
vt 0.832188 0.707189
vt 0.832189 0.542811
vt 0.667811 0.542811
vt 0.562435 0.250000
vt 0.562435 0.000000
vt 0.562435 0.500000
vt 0.562435 0.750000
vt 0.625000 1.000000
vt 0.875000 0.500000
vt 0.562435 1.000000
s 0
f 3/1/1 4/2/1 1/3/1
f 6/4/2 10/5/2 4/2/2
f 12/6/3 7/7/3 10/5/3
f 9/8/4 1/9/4 7/7/4
f 10/5/5 1/10/5 4/11/5
f 3/12/6 16/13/6 13/14/6
f 12/6/6 15/15/6 14/16/6
f 2/3/3 15/17/3 13/18/3
f 5/2/4 14/19/4 15/17/4
f 8/7/1 14/19/1 11/5/1
f 2/9/2 16/20/2 8/7/2
f 2/10/6 11/5/6 5/11/6
f 3/1/1 6/4/1 4/2/1
f 6/4/2 12/6/2 10/5/2
f 12/6/3 9/8/3 7/7/3
f 9/8/4 3/21/4 1/9/4
f 10/5/5 7/7/5 1/10/5
f 15/15/6 6/22/6 3/12/6
f 3/12/6 9/8/6 16/13/6
f 13/14/6 15/15/6 3/12/6
f 16/13/6 9/8/6 12/6/6
f 12/6/6 6/22/6 15/15/6
f 14/16/6 16/13/6 12/6/6
f 2/3/3 5/2/3 15/17/3
f 5/2/4 11/5/4 14/19/4
f 8/7/1 16/20/1 14/19/1
f 2/9/2 13/23/2 16/20/2
f 2/10/6 8/7/6 11/5/6
